<?xml version="1.0" encoding="UTF-8"?>
<svg xmlns="http://www.w3.org/2000/svg" xmlns:xlink="http://www.w3.org/1999/xlink" width="300pt" height="300pt" viewBox="0 0 300 300" version="1.1">
<g id="surface1">
<path style=" stroke:none;fill-rule:nonzero;fill:rgb(90.980392%,28.235294%,28.235294%);fill-opacity:1;" d="M 81.203125 199.882812 L 285.277344 199.882812 C 290.152344 199.882812 294.140625 195.894531 294.140625 191.015625 L 294.140625 108.980469 C 294.140625 104.105469 290.152344 100.117188 285.277344 100.117188 L 14.722656 100.117188 C 9.847656 100.117188 5.859375 104.105469 5.859375 108.980469 L 5.859375 191.015625 C 5.859375 195.890625 9.847656 199.882812 14.722656 199.882812 Z M 81.203125 199.882812 "/>
<path style=" stroke:none;fill-rule:nonzero;fill:rgb(74.117647%,13.72549%,14.901961%);fill-opacity:1;" d="M 150 65.023438 C 178.292969 65.023438 203.351562 78.851562 218.796875 100.117188 L 272.078125 100.117188 C 252.410156 52.03125 205.164062 18.148438 150 18.148438 C 94.835938 18.148438 47.589844 52.03125 27.921875 100.117188 L 81.203125 100.117188 C 96.648438 78.851562 121.707031 65.023438 150 65.023438 Z M 150 65.023438 "/>
<path style=" stroke:none;fill-rule:nonzero;fill:rgb(74.117647%,13.72549%,14.901961%);fill-opacity:1;" d="M 150 234.976562 C 121.707031 234.976562 96.648438 221.144531 81.203125 199.882812 L 27.917969 199.882812 C 47.589844 247.96875 94.832031 281.851562 150 281.851562 C 205.167969 281.851562 252.410156 247.96875 272.082031 199.882812 L 218.796875 199.882812 C 203.351562 221.144531 178.292969 234.976562 150 234.976562 Z M 150 234.976562 "/>
<path style=" stroke:none;fill-rule:nonzero;fill:rgb(0%,0%,0.392157%);fill-opacity:1;" d="M 159.945312 152.847656 C 163.972656 151.292969 166.902344 147.613281 166.902344 141.175781 C 166.902344 131.800781 160.636719 128.871094 152.761719 128.871094 L 140.859375 128.871094 C 139.191406 128.871094 138.097656 130.132812 138.097656 131.570312 L 138.097656 168.140625 C 138.097656 169.980469 140.339844 170.898438 142.582031 170.898438 C 144.824219 170.898438 147.066406 169.980469 147.066406 168.140625 L 147.066406 154.285156 L 150.863281 154.285156 L 158.738281 169.578125 C 159.371094 170.785156 160.464844 171.246094 161.613281 171.246094 C 164.257812 171.246094 167.246094 168.828125 167.246094 166.589844 C 167.246094 166.300781 167.191406 165.898438 166.960938 165.550781 Z M 152.761719 147.382812 L 147.066406 147.382812 L 147.066406 136.691406 L 152.761719 136.691406 C 155.980469 136.691406 157.933594 138.011719 157.933594 142.035156 C 157.933594 146.0625 155.980469 147.382812 152.761719 147.382812 Z M 152.761719 147.382812 "/>
<path style=" stroke:none;fill-rule:nonzero;fill:rgb(0%,0%,0.392157%);fill-opacity:1;" d="M 116.730469 128.871094 L 104.828125 128.871094 C 102.8125 128.871094 101.492188 130.132812 101.492188 131.570312 L 101.492188 168.140625 C 101.492188 169.980469 103.734375 170.898438 105.976562 170.898438 C 108.21875 170.898438 110.460938 169.980469 110.460938 168.140625 L 110.460938 155.722656 L 116.152344 155.722656 C 124.089844 155.722656 130.296875 152.042969 130.296875 142.382812 L 130.296875 142.09375 C 130.296875 132.433594 124.320312 128.871094 116.730469 128.871094 Z M 121.328125 143.070312 C 121.328125 146.980469 119.375 148.820312 116.152344 148.820312 L 110.460938 148.820312 L 110.460938 136.691406 L 116.152344 136.691406 C 119.375 136.691406 121.328125 138.527344 121.328125 142.4375 Z M 121.328125 143.070312 "/>
<path style=" stroke:none;fill-rule:nonzero;fill:rgb(0%,0%,0.392157%);fill-opacity:1;" d="M 252.972656 139.5625 C 252.972656 137.78125 254.640625 136.113281 258.722656 136.113281 C 263.4375 136.113281 264.53125 138.300781 266.601562 138.300781 C 269.128906 138.300781 270.164062 135.136719 270.164062 133.585938 C 270.164062 129.101562 261.769531 128.527344 258.722656 128.527344 C 251.535156 128.527344 244.003906 131.804688 244.003906 140.429688 C 244.003906 153.882812 262.230469 152.675781 262.230469 159.632812 C 262.230469 162.390625 259.296875 163.425781 256.652344 163.425781 C 251.304688 163.425781 249.582031 159.171875 246.878906 159.171875 C 244.695312 159.171875 242.96875 162.046875 242.96875 164 C 242.96875 167.796875 249.292969 171.476562 256.824219 171.476562 C 265.160156 171.476562 271.199219 166.992188 271.199219 158.710938 C 271.199219 144.222656 252.972656 145.316406 252.972656 139.5625 Z M 252.972656 139.5625 "/>
<path style=" stroke:none;fill-rule:nonzero;fill:rgb(0%,0%,0.392157%);fill-opacity:1;" d="M 83.574219 149.855469 L 93.117188 134.5625 C 93.519531 133.929688 93.695312 133.355469 93.695312 132.78125 C 93.695312 130.363281 90.417969 128.527344 87.886719 128.527344 C 86.621094 128.527344 85.757812 128.984375 85.183594 130.019531 L 77.535156 143.359375 L 69.890625 130.019531 C 69.316406 128.984375 68.453125 128.527344 67.1875 128.527344 C 64.65625 128.527344 61.378906 130.363281 61.378906 132.78125 C 61.378906 133.355469 61.554688 133.929688 61.957031 134.5625 L 71.5 149.855469 L 61.550781 165.207031 C 61.207031 165.78125 61.035156 166.300781 61.035156 166.816406 C 61.035156 169.289062 64.542969 171.246094 67.015625 171.246094 C 67.933594 171.246094 68.738281 170.957031 69.140625 170.324219 L 77.535156 156.066406 L 85.929688 170.324219 C 86.277344 170.957031 87.136719 171.246094 88.058594 171.246094 C 90.53125 171.246094 94.039062 169.289062 94.039062 166.816406 C 94.039062 166.300781 93.863281 165.78125 93.519531 165.207031 Z M 83.574219 149.855469 "/>
<path style=" stroke:none;fill-rule:nonzero;fill:rgb(0%,0%,0.392157%);fill-opacity:1;" d="M 53.179688 136.691406 C 54.90625 136.691406 55.878906 134.851562 55.878906 132.722656 C 55.878906 130.882812 55.078125 128.871094 53.179688 128.871094 L 32.710938 128.871094 C 30.753906 128.871094 28.800781 129.789062 28.800781 131.628906 L 28.800781 168.140625 C 28.800781 169.980469 30.753906 170.902344 32.710938 170.902344 L 53.179688 170.902344 C 55.078125 170.902344 55.878906 168.886719 55.878906 167.050781 C 55.878906 164.921875 54.90625 163.082031 53.179688 163.082031 L 37.769531 163.082031 L 37.769531 153.308594 L 46.394531 153.308594 C 48.292969 153.308594 49.097656 151.464844 49.097656 149.914062 C 49.097656 148.074219 48.117188 146.40625 46.394531 146.40625 L 37.769531 146.40625 L 37.769531 136.691406 Z M 53.179688 136.691406 "/>
<path style=" stroke:none;fill-rule:nonzero;fill:rgb(0%,0%,0.392157%);fill-opacity:1;" d="M 218.4375 139.5625 C 218.4375 137.78125 220.105469 136.113281 224.1875 136.113281 C 228.902344 136.113281 229.996094 138.300781 232.066406 138.300781 C 234.59375 138.300781 235.628906 135.136719 235.628906 133.585938 C 235.628906 129.101562 227.234375 128.527344 224.1875 128.527344 C 217 128.527344 209.46875 131.804688 209.46875 140.429688 C 209.46875 153.882812 227.695312 152.675781 227.695312 159.632812 C 227.695312 162.390625 224.761719 163.425781 222.117188 163.425781 C 216.769531 163.425781 215.046875 159.171875 212.34375 159.171875 C 210.15625 159.171875 208.433594 162.046875 208.433594 164 C 208.433594 167.796875 214.757812 171.476562 222.289062 171.476562 C 230.625 171.476562 236.664062 166.992188 236.664062 158.710938 C 236.664062 144.222656 218.4375 145.316406 218.4375 139.5625 Z M 218.4375 139.5625 "/>
<path style=" stroke:none;fill-rule:nonzero;fill:rgb(0%,0%,0.392157%);fill-opacity:1;" d="M 199.945312 136.691406 C 201.667969 136.691406 202.644531 134.851562 202.644531 132.722656 C 202.644531 130.882812 201.839844 128.871094 199.945312 128.871094 L 179.476562 128.871094 C 177.519531 128.871094 175.566406 129.789062 175.566406 131.628906 L 175.566406 168.140625 C 175.566406 169.980469 177.519531 170.902344 179.476562 170.902344 L 199.945312 170.902344 C 201.839844 170.902344 202.644531 168.886719 202.644531 167.050781 C 202.644531 164.921875 201.667969 163.082031 199.945312 163.082031 L 184.535156 163.082031 L 184.535156 153.308594 L 193.160156 153.308594 C 195.058594 153.308594 195.863281 151.464844 195.863281 149.914062 C 195.863281 148.074219 194.882812 146.40625 193.160156 146.40625 L 184.535156 146.40625 L 184.535156 136.691406 Z M 199.945312 136.691406 "/>
<path style=" stroke:none;fill-rule:nonzero;fill:rgb(0%,0%,0.392157%);fill-opacity:1;" d="M 285.277344 94.257812 L 275.945312 94.257812 C 265.566406 70.820312 248.941406 50.828125 227.660156 36.265625 C 204.734375 20.578125 177.878906 12.289062 150 12.289062 C 122.121094 12.289062 95.265625 20.578125 72.339844 36.265625 C 51.058594 50.828125 34.433594 70.820312 24.054688 94.257812 L 14.722656 94.257812 C 6.605469 94.257812 0 100.863281 0 108.980469 L 0 191.015625 C 0 199.136719 6.605469 205.742188 14.722656 205.742188 L 24.054688 205.742188 C 34.433594 229.179688 51.058594 249.171875 72.339844 263.734375 C 95.265625 279.421875 122.117188 287.710938 150 287.710938 C 177.882812 287.710938 204.734375 279.421875 227.660156 263.734375 C 248.941406 249.171875 265.570312 229.179688 275.945312 205.742188 L 285.277344 205.742188 C 293.394531 205.742188 300 199.136719 300 191.015625 L 300 108.980469 C 300 100.863281 293.394531 94.257812 285.277344 94.257812 Z M 150 24.007812 C 198.429688 24.007812 241.875 51.304688 263.015625 94.257812 L 221.714844 94.257812 C 204.558594 72.230469 177.976562 59.164062 150 59.164062 C 122.023438 59.164062 95.441406 72.230469 78.285156 94.257812 L 63.917969 94.257812 C 82.710938 65.160156 114.859375 47.445312 150 47.445312 C 162.542969 47.445312 174.84375 49.710938 186.5625 54.183594 C 189.585938 55.335938 192.972656 53.820312 194.125 50.796875 C 195.277344 47.773438 193.761719 44.386719 190.738281 43.234375 C 177.679688 38.253906 163.972656 35.726562 150 35.726562 C 129.050781 35.726562 108.519531 41.480469 90.621094 52.363281 C 73.753906 62.625 59.859375 77.058594 50.25 94.257812 L 36.984375 94.257812 C 58.125 51.304688 101.570312 24.007812 150 24.007812 Z M 206.117188 94.257812 L 93.882812 94.257812 C 108.628906 79.453125 128.855469 70.882812 150 70.882812 C 171.144531 70.882812 191.371094 79.453125 206.117188 94.257812 Z M 150 275.992188 C 101.570312 275.992188 58.125 248.695312 36.984375 205.742188 L 78.285156 205.742188 C 95.441406 227.769531 122.023438 240.835938 150 240.835938 C 177.976562 240.835938 204.558594 227.769531 221.714844 205.742188 L 236.082031 205.742188 C 217.289062 234.839844 185.140625 252.554688 150 252.554688 C 137.457031 252.554688 125.15625 250.289062 113.441406 245.816406 C 110.417969 244.664062 107.03125 246.179688 105.875 249.203125 C 104.722656 252.226562 106.238281 255.609375 109.261719 256.765625 C 122.316406 261.746094 136.023438 264.273438 150 264.273438 C 170.949219 264.273438 191.480469 258.519531 209.378906 247.636719 C 226.246094 237.375 240.140625 222.941406 249.75 205.742188 L 263.019531 205.742188 C 241.875 248.695312 198.429688 275.992188 150 275.992188 Z M 93.878906 205.742188 L 206.121094 205.742188 C 191.371094 220.546875 171.144531 229.117188 150 229.117188 C 128.855469 229.117188 108.628906 220.546875 93.878906 205.742188 Z M 288.28125 191.015625 C 288.28125 192.644531 286.90625 194.023438 285.277344 194.023438 L 272.039062 194.023438 C 272.027344 194.023438 272.011719 194.023438 271.996094 194.023438 L 246.542969 194.023438 C 246.355469 194.011719 246.171875 194.011719 245.984375 194.023438 L 28 194.023438 C 27.988281 194.023438 27.976562 194.023438 27.964844 194.023438 L 14.722656 194.023438 C 13.09375 194.023438 11.71875 192.644531 11.71875 191.015625 L 11.71875 108.980469 C 11.71875 107.351562 13.09375 105.976562 14.722656 105.976562 L 27.964844 105.976562 C 27.976562 105.976562 27.988281 105.976562 28 105.976562 L 53.53125 105.976562 C 53.597656 105.980469 53.664062 105.988281 53.730469 105.988281 C 53.789062 105.988281 53.847656 105.980469 53.90625 105.976562 L 81.191406 105.976562 C 81.195312 105.976562 81.195312 105.976562 81.199219 105.976562 C 81.203125 105.976562 81.203125 105.976562 81.203125 105.976562 L 272.0625 105.976562 C 272.070312 105.976562 272.074219 105.976562 272.082031 105.976562 C 272.089844 105.976562 272.101562 105.976562 272.109375 105.976562 L 285.277344 105.976562 C 286.90625 105.976562 288.28125 107.351562 288.28125 108.980469 Z M 288.28125 191.015625 "/>
<path style=" stroke:none;fill-rule:nonzero;fill:rgb(0%,0%,0.392157%);fill-opacity:1;" d="M 201.183594 61.128906 L 201.351562 61.226562 C 202.25 61.730469 203.226562 61.96875 204.191406 61.96875 C 206.242188 61.96875 208.230469 60.882812 209.304688 58.957031 C 210.882812 56.132812 209.855469 52.554688 207.03125 50.976562 C 207.023438 50.972656 206.96875 50.941406 206.964844 50.9375 C 204.160156 49.335938 200.605469 50.320312 199 53.125 C 197.390625 55.925781 198.382812 59.519531 201.183594 61.128906 Z M 201.183594 61.128906 "/>
<path style=" stroke:none;fill-rule:nonzero;fill:rgb(0%,0%,0.392157%);fill-opacity:1;" d="M 98.9375 238.9375 C 98.835938 238.878906 98.738281 238.824219 98.636719 238.765625 C 95.808594 237.195312 92.230469 238.207031 90.660156 241.035156 C 89.085938 243.863281 90.09375 247.425781 92.921875 248.996094 L 92.949219 249.011719 C 93.886719 249.570312 94.917969 249.835938 95.9375 249.835938 C 97.9375 249.835938 99.882812 248.8125 100.980469 246.96875 C 102.632812 244.1875 101.71875 240.59375 98.9375 238.9375 Z M 98.9375 238.9375 "/>
</g>
</svg>
