<?xml version="1.0" encoding="UTF-8"?>
<svg xmlns="http://www.w3.org/2000/svg" xmlns:xlink="http://www.w3.org/1999/xlink" width="300pt" height="300pt" viewBox="0 0 300 300" version="1.1">
<g id="surface1">
<path style=" stroke:none;fill-rule:nonzero;fill:rgb(85.882353%,21.960784%,5.490196%);fill-opacity:1;" d="M 148.515625 55.585938 C 134.652344 65.335938 118.941406 76.386719 110.523438 94.667969 C 95.902344 126.566406 140.441406 161.355469 142.347656 162.820312 C 142.789062 163.160156 143.320312 163.332031 143.847656 163.332031 C 144.40625 163.332031 144.96875 163.140625 145.425781 162.757812 C 146.308594 162.019531 146.558594 160.761719 146.027344 159.738281 C 145.867188 159.429688 129.878906 128.375 130.472656 106.09375 C 130.683594 98.335938 141.542969 89.535156 153.039062 80.214844 C 163.570312 71.679688 175.503906 62.003906 182.488281 50.6875 C 197.816406 25.773438 180.777344 1.277344 180.605469 1.035156 C 179.929688 0.0820312 178.679688 -0.261719 177.609375 0.207031 C 176.542969 0.679688 175.953125 1.832031 176.195312 2.972656 C 176.230469 3.136719 179.542969 19.335938 170.324219 36.023438 C 166.527344 42.921875 158.179688 48.789062 148.515625 55.585938 Z M 148.515625 55.585938 "/>
<path style=" stroke:none;fill-rule:nonzero;fill:rgb(85.882353%,21.960784%,5.490196%);fill-opacity:1;" d="M 206.917969 66.574219 C 207.894531 65.835938 208.183594 64.492188 207.589844 63.421875 C 207 62.347656 205.710938 61.875 204.566406 62.308594 C 202.210938 63.207031 146.898438 84.527344 146.898438 110.285156 C 146.898438 128.042969 154.484375 137.425781 160.023438 144.277344 C 162.195312 146.964844 164.070312 149.285156 164.691406 151.265625 C 166.429688 156.972656 162.308594 167.292969 160.574219 170.785156 C 160.074219 171.792969 160.320312 173.007812 161.167969 173.742188 C 161.628906 174.140625 162.203125 174.339844 162.777344 174.339844 C 163.265625 174.339844 163.753906 174.195312 164.179688 173.898438 C 165.128906 173.238281 187.421875 157.476562 183.425781 138.488281 C 181.933594 131.273438 178.386719 126 175.257812 121.34375 C 170.410156 114.136719 166.910156 108.925781 172.222656 99.308594 C 178.445312 88.089844 206.632812 66.785156 206.917969 66.574219 Z M 206.917969 66.574219 "/>
<path style=" stroke:none;fill-rule:nonzero;fill:rgb(45.098039%,63.137255%,98.431373%);fill-opacity:1;" d="M 62.941406 174.75 C 61.992188 177.585938 62.441406 180.402344 64.234375 182.894531 C 70.230469 191.21875 91.46875 195.800781 124.039062 195.800781 C 124.042969 195.800781 124.042969 195.800781 124.042969 195.800781 C 128.457031 195.800781 133.117188 195.714844 137.886719 195.542969 C 189.964844 193.679688 209.277344 177.457031 210.074219 176.765625 C 210.945312 176.015625 211.175781 174.765625 210.636719 173.75 C 210.097656 172.738281 208.933594 172.230469 207.820312 172.539062 C 189.480469 177.546875 155.234375 179.324219 131.476562 179.324219 C 104.898438 179.324219 91.363281 177.40625 88.046875 175.992188 C 89.75 173.660156 100.238281 169.488281 113.234375 166.933594 C 114.476562 166.6875 115.328125 165.542969 115.207031 164.28125 C 115.082031 163.023438 114.023438 162.0625 112.757812 162.0625 C 105.140625 162.0625 66.933594 162.671875 62.941406 174.75 Z M 62.941406 174.75 "/>
<path style=" stroke:none;fill-rule:nonzero;fill:rgb(45.098039%,63.137255%,98.431373%);fill-opacity:1;" d="M 237.195312 158.039062 C 226.453125 158.039062 216.269531 163.421875 215.839844 163.648438 C 214.847656 164.183594 214.34375 165.320312 214.617188 166.414062 C 214.890625 167.507812 215.871094 168.277344 217 168.277344 C 217.226562 168.277344 239.910156 168.464844 241.964844 181.425781 C 243.785156 192.605469 220.503906 210.722656 211.378906 216.757812 C 210.390625 217.410156 210.007812 218.671875 210.464844 219.761719 C 210.855469 220.6875 211.757812 221.269531 212.734375 221.269531 C 212.902344 221.269531 213.074219 221.25 213.246094 221.214844 C 215.410156 220.75 266.21875 209.554688 260.847656 179.972656 C 257.570312 161.84375 246.175781 158.039062 237.195312 158.039062 Z M 237.195312 158.039062 "/>
<path style=" stroke:none;fill-rule:nonzero;fill:rgb(45.098039%,63.137255%,98.431373%);fill-opacity:1;" d="M 202.351562 213.136719 C 202.53125 212.191406 202.136719 211.226562 201.347656 210.671875 L 189.164062 202.140625 C 188.570312 201.722656 187.820312 201.59375 187.121094 201.777344 C 186.996094 201.8125 174.253906 205.160156 155.761719 207.214844 C 148.417969 208.035156 140.195312 208.472656 131.980469 208.472656 C 113.488281 208.472656 101.398438 206.300781 99.640625 204.707031 C 99.40625 204.257812 99.480469 204.054688 99.519531 203.941406 C 99.839844 203.050781 101.554688 201.996094 102.660156 201.578125 C 103.882812 201.125 104.539062 199.800781 104.160156 198.554688 C 103.78125 197.308594 102.496094 196.574219 101.230469 196.878906 C 89.011719 199.828125 83.035156 203.953125 83.46875 209.136719 C 84.242188 218.328125 105.53125 223.042969 123.527344 224.292969 C 126.117188 224.46875 128.914062 224.558594 131.84375 224.558594 C 131.847656 224.558594 131.847656 224.558594 131.847656 224.558594 C 161.777344 224.558594 200.140625 215.167969 200.523438 215.074219 C 201.460938 214.84375 202.175781 214.085938 202.351562 213.136719 Z M 202.351562 213.136719 "/>
<path style=" stroke:none;fill-rule:nonzero;fill:rgb(45.098039%,63.137255%,98.431373%);fill-opacity:1;" d="M 110.507812 232.863281 C 111.433594 232.261719 111.839844 231.121094 111.515625 230.070312 C 111.1875 229.023438 110.203125 228.332031 109.101562 228.347656 C 107.464844 228.390625 93.074219 229.039062 92.070312 238.199219 C 91.765625 240.9375 92.546875 243.4375 94.398438 245.632812 C 99.566406 251.753906 113.511719 255.390625 137.023438 256.753906 C 139.804688 256.921875 142.628906 257.007812 145.421875 257.007812 C 175.3125 257.007812 195.445312 247.648438 196.289062 247.25 C 197.105469 246.863281 197.644531 246.058594 197.691406 245.15625 C 197.738281 244.253906 197.289062 243.398438 196.519531 242.925781 L 181.121094 233.527344 C 180.589844 233.203125 179.949219 233.09375 179.339844 233.21875 C 179.242188 233.238281 169.46875 235.265625 154.714844 237.269531 C 151.921875 237.648438 148.429688 237.839844 144.328125 237.839844 C 129.589844 237.839844 113.199219 235.433594 110.054688 233.855469 C 110.007812 233.5625 110.066406 233.1875 110.507812 232.863281 Z M 110.507812 232.863281 "/>
<path style=" stroke:none;fill-rule:nonzero;fill:rgb(45.098039%,63.137255%,98.431373%);fill-opacity:1;" d="M 131.488281 285.265625 C 199.957031 285.207031 236.707031 273.03125 243.785156 265.367188 C 246.292969 262.65625 246.5625 260.089844 246.351562 258.414062 C 245.824219 254.289062 242.066406 251.765625 241.640625 251.488281 C 240.613281 250.828125 239.234375 251.003906 238.433594 251.925781 C 237.632812 252.851562 237.613281 254.203125 238.417969 255.125 C 238.847656 255.683594 239.097656 256.613281 237.835938 257.875 C 235.003906 260.519531 206.460938 268.542969 158.933594 270.953125 C 152.425781 271.289062 145.597656 271.464844 138.640625 271.464844 C 96.085938 271.464844 64.945312 265.636719 60.859375 262.238281 C 62.433594 259.976562 73.449219 256.359375 85.164062 254.3125 C 86.484375 254.082031 87.375 252.835938 87.171875 251.511719 C 86.964844 250.191406 85.746094 249.277344 84.410156 249.453125 C 84.082031 249.496094 82.960938 249.5625 81.660156 249.644531 C 62.332031 250.824219 39.996094 253.453125 38.832031 263.414062 C 38.476562 266.449219 39.378906 269.203125 41.511719 271.601562 C 46.730469 277.464844 61.734375 285.261719 131.488281 285.261719 C 131.488281 285.265625 131.488281 285.265625 131.488281 285.265625 Z M 131.488281 285.265625 "/>
<path style=" stroke:none;fill-rule:nonzero;fill:rgb(45.098039%,63.137255%,98.431373%);fill-opacity:1;" d="M 257.234375 267.527344 C 256.265625 267.078125 255.125 267.304688 254.402344 268.085938 C 254.300781 268.195312 244.007812 278.957031 213.054688 285.277344 C 201.207031 287.652344 178.964844 288.855469 146.945312 288.855469 C 114.867188 288.855469 84.34375 287.59375 84.042969 287.582031 C 82.765625 287.519531 81.675781 288.445312 81.503906 289.703125 C 81.328125 290.957031 82.136719 292.136719 83.367188 292.429688 C 83.6875 292.507812 115.675781 300 159.410156 300 C 180.386719 300 200.800781 298.296875 220.082031 294.933594 C 256.039062 288.632812 258.554688 270.804688 258.644531 270.046875 C 258.769531 268.992188 258.203125 267.976562 257.234375 267.527344 Z M 257.234375 267.527344 "/>
</g>
</svg>
