<?xml version="1.0" encoding="UTF-8"?>
<svg xmlns="http://www.w3.org/2000/svg" xmlns:xlink="http://www.w3.org/1999/xlink" width="200pt" height="200pt" viewBox="0 0 200 200" version="1.1">
<g id="surface1">
<path style=" stroke:none;fill-rule:nonzero;fill:rgb(0%,47.843137%,72.54902%);fill-opacity:1;" d="M 200 100 C 200 155.226562 155.226562 200 100 200 C 44.773438 200 0 155.226562 0 100 C 0 44.769531 44.773438 0 100 0 C 155.226562 0 200 44.769531 200 100 Z M 200 100 "/>
<path style=" stroke:none;fill-rule:nonzero;fill:rgb(94.509804%,94.901961%,94.901961%);fill-opacity:1;" d="M 159.75 108.042969 L 159.75 149.273438 L 135.847656 149.273438 L 135.847656 110.808594 C 135.847656 101.148438 132.394531 94.554688 123.742188 94.554688 C 117.136719 94.554688 113.210938 98.996094 111.480469 103.292969 C 110.851562 104.832031 110.6875 106.964844 110.6875 109.121094 L 110.6875 149.269531 L 86.785156 149.269531 C 86.785156 149.269531 87.105469 84.125 86.785156 77.378906 L 110.691406 77.378906 L 110.691406 87.566406 C 110.640625 87.648438 110.574219 87.726562 110.53125 87.804688 L 110.691406 87.804688 L 110.691406 87.566406 C 113.867188 82.679688 119.53125 75.691406 132.234375 75.691406 C 147.957031 75.691406 159.75 85.96875 159.75 108.042969 Z M 61.777344 42.726562 C 53.601562 42.726562 48.25 48.09375 48.25 55.144531 C 48.25 62.046875 53.445312 67.570312 61.464844 67.570312 L 61.617188 67.570312 C 69.957031 67.570312 75.140625 62.046875 75.140625 55.144531 C 74.980469 48.09375 69.957031 42.726562 61.777344 42.726562 Z M 49.671875 149.273438 L 73.566406 149.273438 L 73.566406 77.378906 L 49.671875 77.378906 Z M 49.671875 149.273438 "/>
</g>
</svg>
