<?xml version="1.0" encoding="UTF-8"?>
<svg xmlns="http://www.w3.org/2000/svg" xmlns:xlink="http://www.w3.org/1999/xlink" width="300pt" height="300pt" viewBox="0 0 300 300" version="1.1">
<g id="surface1">
<path style=" stroke:none;fill-rule:nonzero;fill:rgb(94.901961%,94.901961%,94.901961%);fill-opacity:1;" d="M 300 150 C 300 232.84375 232.84375 300 150 300 C 73.566406 300 10.488281 242.835938 1.1875 168.925781 C 0.40625 162.726562 0 156.410156 0 150 C 0 138.257812 1.347656 126.828125 3.898438 115.859375 C 19.351562 49.46875 78.898438 0 150 0 C 220.921875 0 280.351562 49.226562 295.976562 115.371094 C 298.027344 124.023438 299.320312 132.960938 299.792969 142.113281 C 299.933594 144.726562 300 147.355469 300 150 Z M 300 150 "/>
<path style=" stroke:none;fill-rule:nonzero;fill:rgb(23.137255%,52.941176%,22.352941%);fill-opacity:1;" d="M 142.496094 162.046875 L 142.496094 123.046875 L 108.722656 103.546875 L 74.949219 123.046875 L 74.949219 162.046875 L 108.722656 181.546875 Z M 142.496094 162.046875 "/>
<path style=" stroke:none;fill-rule:nonzero;fill:rgb(20%,20%,20%);fill-opacity:1;" d="M 275.511719 156.128906 L 297.519531 168.839844 L 275.511719 181.546875 L 241.738281 162.046875 L 241.738281 123.046875 L 275.511719 103.546875 L 295.976562 115.371094 C 298.027344 124.023438 299.320312 132.960938 299.792969 142.113281 L 287.277344 149.339844 L 287.277344 135.753906 L 275.511719 128.964844 L 263.742188 135.753906 L 263.742188 149.339844 Z M 275.511719 156.128906 "/>
<path style=" stroke:none;fill-rule:nonzero;fill:rgb(40%,62.745098%,37.647059%);fill-opacity:1;" d="M 282.066406 146.332031 L 282.066406 138.761719 L 275.507812 134.976562 L 268.953125 138.761719 L 268.953125 146.332031 L 275.507812 150.117188 Z M 282.066406 146.332031 "/>
<path style=" stroke:none;fill-rule:nonzero;fill:rgb(20%,20%,20%);fill-opacity:1;" d="M 58.996094 123.050781 L 58.996094 174.476562 L 36.472656 161.625 L 36.472656 135.261719 L 25.226562 128.765625 L 13.976562 135.261719 L 13.976562 161.625 L 1.1875 168.925781 C 0.40625 162.726562 0 156.410156 0 150 C 0 138.257812 1.347656 126.828125 3.898438 115.859375 L 25.226562 103.546875 Z M 58.996094 123.050781 "/>
<path style=" stroke:none;fill-rule:nonzero;fill:rgb(42.745098%,65.490196%,36.470588%);fill-opacity:1;" d="M 108.71875 103.546875 L 142.492188 162.042969 L 108.722656 181.539062 L 74.949219 123.042969 Z M 108.71875 103.546875 "/>
<path style=" stroke:none;fill-rule:nonzero;fill:rgb(33.333333%,63.921569%,26.666667%);fill-opacity:1;" d="M 74.949219 162.046875 L 86.546875 143.132812 L 74.949219 123.046875 Z M 74.949219 162.046875 "/>
<path style=" stroke:none;fill-rule:nonzero;fill:rgb(38.823529%,61.568627%,34.117647%);fill-opacity:1;" d="M 131.238281 142.546875 L 142.496094 123.046875 L 108.722656 103.546875 Z M 131.238281 142.546875 "/>
<path style=" stroke:none;fill-rule:nonzero;fill:rgb(20%,20%,20%);fill-opacity:1;" d="M 203.058594 58.347656 L 203.058594 110.085938 L 191.738281 103.546875 L 157.960938 123.046875 L 157.960938 162.046875 L 191.738281 181.546875 L 225.507812 162.046875 L 225.507812 70.367188 Z M 202.996094 149.046875 L 191.734375 155.546875 L 180.476562 149.046875 L 180.476562 136.046875 L 191.734375 129.542969 L 202.996094 136.046875 Z M 202.996094 149.046875 "/>
<path style=" stroke:none;fill-rule:nonzero;fill:rgb(40%,62.745098%,37.647059%);fill-opacity:1;" d="M 165.320312 210.1875 C 165.320312 210.1875 164.660156 204.484375 158.5625 204.484375 C 152.460938 204.484375 148.285156 205.28125 148.285156 208.660156 C 148.285156 212.042969 160.152344 212.042969 164.660156 213.367188 C 169.167969 214.691406 173.144531 218.140625 171.15625 224.238281 C 169.167969 230.335938 163.066406 231 153.65625 231 C 144.242188 231 142.121094 223.175781 142.121094 220.128906 L 147.425781 220.128906 C 147.425781 220.128906 146.761719 224.902344 152.992188 225.695312 C 159.222656 226.492188 165.179688 226.9375 165.984375 222.117188 C 167.042969 215.753906 145.832031 218.9375 143.976562 212.703125 C 142.410156 207.441406 143.3125 200.507812 153.917969 199.445312 C 164.527344 198.386719 170.359375 203.070312 170.359375 210.054688 Z M 165.320312 210.1875 "/>
<path style=" stroke:none;fill-rule:nonzero;fill:rgb(40%,62.745098%,37.647059%);fill-opacity:1;" d="M 114.09375 235.039062 L 125.820312 241.804688 C 131.710938 245.207031 139.070312 240.957031 139.070312 234.152344 L 139.070312 200.464844 L 134.292969 200.464844 L 134.292969 232.824219 C 134.292969 236.539062 130.273438 238.863281 127.054688 237.003906 L 118.875 232.28125 L 118.875 197.746094 L 148.78125 180.480469 L 178.6875 197.746094 L 178.6875 232.28125 L 148.78125 249.546875 L 140.164062 244.570312 L 134.539062 246.839844 L 148.78125 255.0625 L 183.46875 235.035156 L 183.46875 194.988281 L 148.78125 174.960938 L 114.09375 194.988281 Z M 114.09375 235.039062 "/>
</g>
</svg>
