<?xml version="1.0" encoding="UTF-8"?>
<svg xmlns="http://www.w3.org/2000/svg" xmlns:xlink="http://www.w3.org/1999/xlink" width="300pt" height="300pt" viewBox="0 0 300 300" version="1.1">
<g id="surface1">
<path style=" stroke:none;fill-rule:nonzero;fill:rgb(0%,59.215686%,65.490196%);fill-opacity:1;" d="M 233.710938 243.585938 C 200.164062 243.585938 155.636719 228.324219 116.988281 206.460938 C 64.738281 176.898438 25.625 137.851562 17.351562 106.976562 C 13.476562 92.523438 16.851562 82.375 20.375 76.414062 C 41.851562 39.9375 120.199219 58.011719 183 93.550781 C 235.25 123.113281 274.363281 162.164062 282.636719 193.039062 C 286.511719 207.488281 283.136719 217.636719 279.613281 223.601562 C 271.351562 237.625 254.6875 243.585938 233.710938 243.585938 Z M 66.238281 81.226562 C 41.75 81.226562 38.636719 89.800781 41.5 100.5 C 46.75 120.101562 76.460938 154.8125 129.289062 184.710938 C 195.324219 222.074219 249.675781 225.1875 258.0625 210.914062 C 259.636719 208.238281 259.789062 204.398438 258.476562 199.511719 C 253.226562 179.914062 223.511719 145.199219 170.6875 115.300781 C 127.835938 91.050781 89.886719 81.226562 66.238281 81.226562 Z M 66.238281 81.226562 "/>
<path style=" stroke:none;fill-rule:nonzero;fill:rgb(37.647059%,49.019608%,54.509804%);fill-opacity:1;" d="M 175 150 C 175 163.800781 163.800781 175 150 175 C 136.199219 175 125 163.800781 125 150 C 125 136.199219 136.199219 125 150 125 C 163.800781 125 175 136.199219 175 150 Z M 175 150 "/>
<path style=" stroke:none;fill-rule:nonzero;fill:rgb(0%,73.72549%,83.137255%);fill-opacity:1;" d="M 150 300 C 108.960938 300 87.5 224.539062 87.5 150 C 87.5 75.460938 108.960938 0 150 0 C 191.039062 0 212.5 75.460938 212.5 150 C 212.5 224.539062 191.039062 300 150 300 Z M 150 25 C 135.074219 25 112.5 74.851562 112.5 150 C 112.5 225.148438 135.074219 275 150 275 C 164.925781 275 187.5 225.148438 187.5 150 C 187.5 74.851562 164.925781 25 150 25 Z M 150 25 "/>
<path style=" stroke:none;fill-rule:nonzero;fill:rgb(30.196078%,81.568627%,88.235294%);fill-opacity:1;" d="M 176.75 67 C 167.875 69.75 158.875 73.25 150 77.125 C 160.25 81.5 170.375 86.5 180.25 92 L 182.5 91.25 C 180.875 82.375 178.875 74.25 176.75 67 Z M 279.625 76.375 C 267.375 55.625 236.75 52.5 201 60.375 C 203.25 68 205.125 76.125 206.625 84.5 C 217 82.25 226.125 81.25 233.75 81.25 C 258.925781 81.25 261.085938 90.398438 258.5 100.5 C 256.25 108.875 249.5 120.125 238.375 132.625 C 215.824219 157.375 181.039062 181.136719 150 195.5 C 160.625 200.625 170.75 204.75 180.25 208 C 200.875 196.199219 230.261719 178.324219 256.125 150 C 269.75 135.125 279.125 120.375 282.625 107 C 285.511719 96.335938 285.039062 85.789062 279.625 76.375 Z M 182.5 91.25 C 180.875 82.375 178.875 74.25 176.75 67 C 167.875 69.75 158.875 73.25 150 77.125 C 160.25 81.5 170.375 86.5 180.25 92 Z M 117.5 208.75 C 119.125 217.625 121.125 225.875 123.25 233.125 C 132.125 230.25 141.125 226.875 150 223 C 139.75 218.5 129.5 213.5 119.75 208 Z M 79.5 150 C 101.476562 131.164062 126.574219 115.351562 150 104.5 C 139.375 99.375 129.25 95.25 119.75 92 C 99.125 103.800781 80.664062 115.585938 61.625 132.625 C 44.550781 147.449219 23.136719 170.960938 17.375 193 C 10.175781 219.914062 25.324219 243.625 66.25 243.625 C 76.375 243.625 87.375 242.25 99 239.625 C 96.75 232 94.875 223.875 93.375 215.5 C 69.875 220.5 35.5 222.914062 41.5 199.5 C 46.273438 181.710938 65.8125 162.164062 79.5 150 Z M 79.5 150 "/>
<path style=" stroke:none;fill-rule:nonzero;fill:rgb(0%,51.372549%,56.862745%);fill-opacity:1;" d="M 113.363281 175.113281 C 114.148438 186.375 115.449219 196.886719 117.125 206.539062 C 118 207.023438 118.875 207.523438 119.75 208 L 119.761719 208 C 129.585938 213.4375 139.75 218.4375 150 222.875 L 150 195.511719 C 143.261719 192.289062 136.351562 188.6875 129.300781 184.699219 C 123.738281 181.550781 118.425781 178.351562 113.363281 175.113281 Z M 79.550781 149.960938 C 79.523438 149.976562 79.511719 149.988281 79.5 150 C 74.050781 154.851562 67.664062 160.875 61.648438 167.488281 C 70.050781 174.898438 79.398438 182.210938 89.5 189.226562 C 88.386719 178.5625 87.738281 167.625 87.550781 156.648438 C 84.761719 154.414062 82.085938 152.175781 79.550781 149.960938 Z M 123.226562 66.9375 C 121.074219 74.210938 119.148438 82.324219 117.539062 91.1875 C 122.199219 92.761719 127 94.539062 131.9375 96.523438 C 136.289062 98.261719 140.75 100.1875 145.3125 102.289062 C 146.863281 103 148.425781 103.738281 150 104.488281 L 150 77.125 C 141.074219 73.261719 132.085938 69.835938 123.226562 66.9375 Z M 66.273438 56.414062 C 45.3125 56.414062 28.636719 62.375 20.375 76.398438 C 16.863281 82.363281 13.488281 92.511719 17.363281 106.960938 C 20.925781 120.261719 30.210938 135.085938 43.8125 150.011719 C 49.738281 143.5 55.925781 137.574219 61.636719 132.625 C 61.664062 132.601562 61.699219 132.574219 61.726562 132.550781 C 50.539062 120.125 43.761719 108.914062 41.511719 100.5 C 38.636719 89.8125 41.761719 81.226562 66.25 81.226562 C 73.886719 81.226562 83.011719 82.25 93.300781 84.449219 C 94.875 76.011719 96.773438 67.925781 98.988281 60.300781 C 87.398438 57.789062 76.351562 56.414062 66.273438 56.414062 Z M 66.273438 56.414062 "/>
<path style=" stroke:none;fill-rule:nonzero;fill:rgb(32.941176%,42.745098%,47.45098%);fill-opacity:1;" d="M 150 125 C 136.199219 125 125 136.199219 125 150 C 125 163.800781 136.199219 175 150 175 Z M 150 125 "/>
<path style=" stroke:none;fill-rule:nonzero;fill:rgb(0%,64.313725%,72.54902%);fill-opacity:1;" d="M 113.375 124.789062 C 104.585938 130.460938 95.898438 136.675781 87.5625 143.335938 C 87.523438 145.5625 87.5 147.773438 87.5 150 C 87.5 152.210938 87.523438 154.4375 87.5625 156.648438 C 87.75 167.613281 88.398438 178.550781 89.511719 189.226562 C 90.449219 198.238281 91.710938 207.050781 93.300781 215.523438 C 93.324219 215.523438 93.351562 215.511719 93.375 215.511719 C 94.875 223.886719 96.761719 232.011719 99 239.636719 C 98.988281 239.636719 98.988281 239.636719 98.976562 239.636719 C 109.261719 275.039062 126.398438 300 150 300 L 150 275 C 140.386719 275 127.601562 254.324219 119.726562 219.539062 C 118.925781 216.074219 118.175781 212.460938 117.5 208.75 L 117.523438 208.75 C 117.386719 208.011719 117.261719 207.289062 117.136719 206.539062 C 115.460938 196.886719 114.164062 186.375 113.375 175.113281 C 112.800781 167.113281 112.5 158.726562 112.5 150 C 112.5 141.238281 112.8125 132.824219 113.375 124.789062 Z M 150 0 C 126.414062 0 109.289062 24.9375 98.988281 60.300781 C 96.773438 67.925781 94.875 76.011719 93.300781 84.449219 C 91.710938 92.925781 90.449219 101.738281 89.511719 110.75 C 98.449219 104.601562 107.5625 99.023438 117.125 93.511719 C 117.25 92.726562 117.386719 91.960938 117.539062 91.1875 C 119.148438 82.324219 121.085938 74.210938 123.226562 66.9375 C 131.050781 40.386719 141.710938 25 150 25 Z M 150 0 "/>
<path style=" stroke:none;fill-rule:nonzero;fill:rgb(26.27451%,70.980392%,76.862745%);fill-opacity:1;" d="M 119.75 208 L 117.523438 208.75 L 117.5 208.75 C 118.1875 212.460938 118.925781 216.074219 119.726562 219.539062 C 120.824219 224.351562 122.011719 228.898438 123.25 233.125 C 132.125 230.25 141.125 226.875 150 223 C 139.75 218.5 129.5 213.5 119.75 208 Z M 119.75 92 C 118.875 92.5 117.988281 93 117.125 93.511719 C 107.5625 99.023438 98.449219 104.601562 89.511719 110.75 C 80.175781 117.175781 71.011719 124.238281 61.726562 132.550781 C 61.699219 132.574219 61.664062 132.601562 61.636719 132.625 C 55.9375 137.574219 49.75 143.5 43.8125 150.011719 C 31.988281 163 21.210938 178.324219 17.375 193 C 10.175781 219.914062 25.324219 243.625 66.25 243.625 C 76.363281 243.625 87.363281 242.25 98.976562 239.625 L 99 239.625 C 96.75 232 94.875 223.875 93.375 215.5 C 93.351562 215.5 93.324219 215.511719 93.300781 215.511719 C 84.726562 217.335938 74.699219 218.8125 65.738281 218.8125 C 50.136719 218.8125 37.699219 214.351562 41.511719 199.5 C 44.386719 188.800781 52.601562 177.476562 61.664062 167.488281 C 67.664062 160.875 74.039062 154.851562 79.5 150 C 79.511719 149.988281 79.523438 149.976562 79.550781 149.960938 C 82.175781 147.710938 84.851562 145.5 87.5625 143.335938 C 95.898438 136.6875 104.585938 130.460938 113.375 124.789062 C 125.585938 116.898438 138.011719 110.050781 150 104.5 C 148.425781 103.738281 146.863281 103 145.3125 102.289062 C 140.75 100.1875 136.289062 98.273438 131.9375 96.523438 C 127.773438 94.863281 123.710938 93.351562 119.75 92 Z M 119.75 92 "/>
</g>
</svg>
