<?xml version="1.0" encoding="UTF-8"?>
<svg xmlns="http://www.w3.org/2000/svg" xmlns:xlink="http://www.w3.org/1999/xlink" width="300pt" height="300pt" viewBox="0 0 300 300" version="1.1">
<g id="surface1">
<path style=" stroke:none;fill-rule:nonzero;fill:rgb(12.941176%,58.823529%,95.294118%);fill-opacity:1;" d="M 254.636719 64.550781 C 253.453125 63.246094 251.773438 62.5 250.011719 62.5 L 50.011719 62.5 C 46.5625 62.484375 43.75 65.269531 43.734375 68.722656 C 43.734375 68.925781 43.742188 69.132812 43.761719 69.335938 L 62.511719 269.335938 C 62.753906 271.902344 64.546875 274.054688 67.023438 274.761719 L 154.523438 299.761719 C 155.089844 299.921875 155.675781 300.003906 156.261719 300 C 156.933594 300 157.597656 299.894531 158.238281 299.6875 L 233.238281 274.6875 C 235.589844 273.902344 237.257812 271.804688 237.488281 269.335938 L 256.238281 69.335938 C 256.402344 67.585938 255.820312 65.851562 254.636719 64.550781 Z M 254.636719 64.550781 "/>
<path style=" stroke:none;fill-rule:nonzero;fill:rgb(98.039216%,98.039216%,98.039216%);fill-opacity:1;" d="M 156.261719 250 C 155.683594 249.996094 155.105469 249.914062 154.550781 249.75 L 110.800781 237.25 C 108.652344 236.640625 106.996094 234.929688 106.449219 232.761719 L 100.199219 207.761719 C 99.289062 204.433594 101.246094 200.996094 104.574219 200.082031 C 107.902344 199.167969 111.34375 201.128906 112.253906 204.457031 C 112.28125 204.550781 112.304688 204.644531 112.324219 204.738281 L 117.699219 226.238281 L 156.261719 237.261719 L 194.261719 226.398438 L 205.511719 125.011719 L 93.761719 125.011719 C 90.308594 125.011719 87.511719 122.214844 87.511719 118.761719 C 87.511719 115.308594 90.308594 112.511719 93.761719 112.511719 L 212.511719 112.511719 C 215.964844 112.488281 218.777344 115.273438 218.800781 118.722656 C 218.800781 118.964844 218.789062 119.207031 218.761719 119.449219 L 206.261719 231.949219 C 205.976562 234.46875 204.199219 236.566406 201.761719 237.261719 L 158.011719 249.761719 C 157.445312 249.925781 156.855469 250.003906 156.261719 250 Z M 156.261719 250 "/>
<path style=" stroke:none;fill-rule:nonzero;fill:rgb(98.039216%,98.039216%,98.039216%);fill-opacity:1;" d="M 206.261719 175 L 100.011719 175 C 96.5625 175 93.761719 172.203125 93.761719 168.75 C 93.761719 165.296875 96.5625 162.5 100.011719 162.5 L 206.261719 162.5 C 209.714844 162.5 212.511719 165.296875 212.511719 168.75 C 212.511719 172.203125 209.714844 175 206.261719 175 Z M 206.261719 175 "/>
<path style=" stroke:none;fill-rule:nonzero;fill:rgb(21.568627%,27.843137%,30.980392%);fill-opacity:1;" d="M 112.511719 37.5 L 87.511719 37.5 C 84.0625 37.5 81.261719 34.703125 81.261719 31.25 L 81.261719 6.25 C 81.261719 2.796875 84.0625 0 87.511719 0 L 112.511719 0 C 115.964844 0 118.761719 2.796875 118.761719 6.25 C 118.761719 9.703125 115.964844 12.5 112.511719 12.5 L 93.761719 12.5 L 93.761719 25 L 112.511719 25 C 115.964844 25 118.761719 27.796875 118.761719 31.25 C 118.761719 34.703125 115.964844 37.5 112.511719 37.5 Z M 112.511719 37.5 "/>
<path style=" stroke:none;fill-rule:nonzero;fill:rgb(21.568627%,27.843137%,30.980392%);fill-opacity:1;" d="M 162.511719 37.5 L 137.511719 37.5 C 134.0625 37.5 131.261719 34.703125 131.261719 31.25 C 131.261719 27.796875 134.0625 25 137.511719 25 L 147.425781 25 L 133.085938 10.675781 C 130.644531 8.238281 130.640625 4.28125 133.078125 1.835938 C 134.25 0.65625 135.847656 -0.00390625 137.511719 0 L 162.511719 0 C 165.964844 0 168.761719 2.796875 168.761719 6.25 C 168.761719 9.703125 165.964844 12.5 162.511719 12.5 L 152.601562 12.5 L 166.925781 26.824219 C 169.371094 29.261719 169.375 33.21875 166.9375 35.664062 C 165.765625 36.839844 164.171875 37.5 162.511719 37.5 Z M 162.511719 37.5 "/>
<path style=" stroke:none;fill-rule:nonzero;fill:rgb(21.568627%,27.843137%,30.980392%);fill-opacity:1;" d="M 212.511719 37.5 L 187.511719 37.5 C 184.0625 37.5 181.261719 34.703125 181.261719 31.25 C 181.261719 27.796875 184.0625 25 187.511719 25 L 197.425781 25 L 183.085938 10.675781 C 180.644531 8.238281 180.640625 4.28125 183.078125 1.835938 C 184.253906 0.65625 185.847656 -0.00390625 187.511719 0 L 212.511719 0 C 215.964844 0 218.761719 2.796875 218.761719 6.25 C 218.761719 9.703125 215.964844 12.5 212.511719 12.5 L 202.601562 12.5 L 216.925781 26.824219 C 219.371094 29.261719 219.375 33.21875 216.9375 35.664062 C 215.765625 36.839844 214.171875 37.5 212.511719 37.5 Z M 212.511719 37.5 "/>
</g>
</svg>
