<?xml version="1.0" encoding="UTF-8"?>
<svg xmlns="http://www.w3.org/2000/svg" xmlns:xlink="http://www.w3.org/1999/xlink" width="200pt" height="200pt" viewBox="0 0 200 200" version="1.1">
<g id="surface1">
<path style=" stroke:none;fill-rule:nonzero;fill:rgb(12.941176%,12.941176%,12.941176%);fill-opacity:1;" d="M 100 4.167969 C 44.75 4.167969 0 48.167969 0 102.433594 C 0 145.859375 28.648438 182.683594 68.375 195.667969 C 73.375 196.589844 75.207031 193.550781 75.207031 190.941406 C 75.207031 188.609375 75.125 182.425781 75.082031 174.234375 C 47.265625 180.160156 41.398438 161.050781 41.398438 161.050781 C 36.851562 149.707031 30.273438 146.675781 30.273438 146.675781 C 21.214844 140.582031 30.976562 140.707031 30.976562 140.707031 C 41.015625 141.390625 46.292969 150.832031 46.292969 150.832031 C 55.207031 165.859375 69.699219 161.515625 75.417969 159.007812 C 76.316406 152.648438 78.890625 148.324219 81.75 145.867188 C 59.542969 143.410156 36.199219 134.957031 36.199219 97.308594 C 36.199219 86.582031 40.074219 77.816406 46.492188 70.941406 C 45.367188 68.457031 41.992188 58.464844 47.367188 44.933594 C 47.367188 44.933594 55.742188 42.300781 74.867188 55.007812 C 82.867188 52.824219 91.367188 51.742188 99.867188 51.691406 C 108.367188 51.742188 116.867188 52.824219 124.867188 55.007812 C 143.867188 42.300781 152.242188 44.933594 152.242188 44.933594 C 157.617188 58.464844 154.242188 68.457031 153.242188 70.941406 C 159.617188 77.816406 163.492188 86.582031 163.492188 97.308594 C 163.492188 135.058594 140.117188 143.367188 117.867188 145.785156 C 121.367188 148.734375 124.617188 154.757812 124.617188 163.964844 C 124.617188 177.117188 124.492188 187.683594 124.492188 190.875 C 124.492188 193.449219 126.242188 196.523438 131.367188 195.542969 C 171.375 182.640625 200 145.792969 200 102.433594 C 200 48.167969 155.226562 4.167969 100 4.167969 Z M 100 4.167969 "/>
</g>
</svg>
