<?xml version="1.0" encoding="UTF-8"?>
<svg xmlns="http://www.w3.org/2000/svg" xmlns:xlink="http://www.w3.org/1999/xlink" width="300pt" height="300pt" viewBox="0 0 300 300" version="1.1">
<g id="surface1">
<path style=" stroke:none;fill-rule:nonzero;fill:rgb(91.372549%,91.372549%,87.843137%);fill-opacity:1;" d="M 198.132812 0 L 42.660156 0 C 38.332031 0 34.820312 3.507812 34.820312 10.316406 L 34.820312 294.644531 C 34.820312 296.492188 38.332031 300 42.660156 300 L 257.339844 300 C 261.667969 300 265.179688 296.492188 265.179688 294.644531 L 265.179688 69.523438 C 265.179688 65.796875 264.679688 64.597656 263.800781 63.710938 L 201.464844 1.375 C 200.582031 0.5 199.382812 0 198.132812 0 Z M 198.132812 0 "/>
<path style=" stroke:none;fill-rule:nonzero;fill:rgb(85.098039%,84.313725%,79.215686%);fill-opacity:1;" d="M 200.894531 0.808594 L 200.894531 64.285156 L 264.371094 64.285156 Z M 200.894531 0.808594 "/>
<path style=" stroke:none;fill-rule:nonzero;fill:rgb(93.333333%,68.627451%,29.411765%);fill-opacity:1;" d="M 257.339844 300 L 42.660156 300 C 38.332031 300 34.820312 296.492188 34.820312 292.164062 L 34.820312 208.929688 L 265.179688 208.929688 L 265.179688 292.164062 C 265.179688 296.492188 261.667969 300 257.339844 300 Z M 257.339844 300 "/>
<path style=" stroke:none;fill-rule:nonzero;fill:rgb(100%,100%,100%);fill-opacity:1;" d="M 139.398438 228.851562 L 139.398438 270.894531 C 139.398438 273.433594 138.933594 275.570312 138.003906 277.300781 C 137.074219 279.03125 135.832031 280.425781 134.269531 281.476562 C 132.707031 282.523438 130.914062 283.257812 128.886719 283.671875 C 126.863281 284.082031 124.769531 284.292969 122.625 284.292969 C 121.546875 284.292969 120.289062 284.179688 118.855469 283.960938 C 117.417969 283.742188 115.921875 283.402344 114.386719 282.9375 C 112.847656 282.472656 111.371094 281.945312 109.957031 281.363281 C 108.535156 280.777344 107.339844 280.121094 106.367188 279.386719 L 110.101562 273.457031 C 110.585938 273.792969 111.285156 274.152344 112.1875 274.515625 C 113.09375 274.878906 114.082031 275.222656 115.15625 275.539062 C 116.230469 275.859375 117.355469 276.132812 118.527344 276.378906 C 119.699219 276.625 120.796875 276.746094 121.820312 276.746094 C 124.402344 276.746094 126.472656 276.242188 128.007812 275.246094 C 129.546875 274.25 130.359375 272.542969 130.460938 270.15625 L 130.460938 228.847656 L 139.398438 228.847656 Z M 139.398438 228.851562 "/>
<path style=" stroke:none;fill-rule:nonzero;fill:rgb(100%,100%,100%);fill-opacity:1;" d="M 183.128906 269.132812 C 183.128906 271.082031 182.726562 272.980469 181.917969 274.8125 C 181.109375 276.644531 179.980469 278.253906 178.511719 279.644531 C 177.042969 281.03125 175.238281 282.144531 173.089844 282.976562 C 170.941406 283.804688 168.5 284.21875 165.765625 284.21875 C 164.59375 284.21875 163.386719 284.152344 162.140625 284.035156 C 160.890625 283.917969 159.632812 283.703125 158.367188 283.414062 C 157.097656 283.121094 155.886719 282.71875 154.742188 282.203125 C 153.59375 281.6875 152.605469 281.066406 151.773438 280.332031 L 153.3125 274.035156 C 153.992188 274.425781 154.859375 274.804688 155.910156 275.167969 C 156.957031 275.535156 158.042969 275.875 159.167969 276.191406 C 160.285156 276.515625 161.410156 276.765625 162.535156 276.964844 C 163.65625 277.15625 164.707031 277.257812 165.6875 277.257812 C 168.664062 277.257812 170.945312 276.5625 172.53125 275.167969 C 174.117188 273.777344 174.910156 271.714844 174.910156 268.980469 C 174.910156 267.320312 174.347656 265.90625 173.230469 264.734375 C 172.105469 263.5625 170.699219 262.5 169.019531 261.546875 C 167.335938 260.59375 165.515625 259.644531 163.558594 258.691406 C 161.605469 257.738281 159.769531 256.613281 158.066406 255.320312 C 156.359375 254.03125 154.9375 252.503906 153.820312 250.746094 C 152.695312 248.988281 152.136719 246.792969 152.136719 244.15625 C 152.136719 241.769531 152.578125 239.640625 153.457031 237.789062 C 154.332031 235.933594 155.519531 234.355469 157.007812 233.0625 C 158.496094 231.769531 160.230469 230.78125 162.207031 230.09375 C 164.1875 229.410156 166.273438 229.070312 168.472656 229.070312 C 170.714844 229.070312 172.988281 229.28125 175.28125 229.691406 C 177.574219 230.105469 179.425781 230.78125 180.847656 231.707031 C 180.550781 232.339844 180.207031 233.035156 179.824219 233.796875 C 179.433594 234.558594 179.0625 235.257812 178.726562 235.917969 C 178.382812 236.578125 178.085938 237.128906 177.847656 237.566406 C 177.601562 238.007812 177.457031 238.253906 177.40625 238.300781 C 177.113281 238.15625 176.785156 237.964844 176.417969 237.71875 C 176.046875 237.472656 175.519531 237.230469 174.839844 236.984375 C 174.15625 236.738281 173.25 236.570312 172.128906 236.46875 C 171.003906 236.367188 169.5625 236.394531 167.808594 236.542969 C 166.828125 236.644531 165.90625 236.917969 165.019531 237.386719 C 164.136719 237.851562 163.355469 238.417969 162.675781 239.105469 C 161.988281 239.792969 161.449219 240.558594 161.0625 241.414062 C 160.671875 242.265625 160.480469 243.089844 160.480469 243.867188 C 160.480469 245.816406 161.035156 247.394531 162.160156 248.59375 C 163.28125 249.792969 164.671875 250.835938 166.332031 251.742188 C 167.996094 252.648438 169.792969 253.527344 171.753906 254.378906 C 173.707031 255.230469 175.527344 256.273438 177.214844 257.492188 C 178.902344 258.707031 180.300781 260.238281 181.425781 262.066406 C 182.5625 263.898438 183.128906 266.25 183.128906 269.132812 Z M 183.128906 269.132812 "/>
<path style=" stroke:none;fill-rule:nonzero;fill:rgb(93.333333%,68.627451%,29.411765%);fill-opacity:1;" d="M 104.464844 101.785156 L 104.464844 80.355469 C 104.464844 77.40625 106.863281 75 109.820312 75 C 112.785156 75 115.179688 72.601562 115.179688 69.644531 C 115.179688 66.6875 112.785156 64.285156 109.820312 64.285156 C 100.960938 64.285156 93.75 71.496094 93.75 80.355469 L 93.75 101.785156 C 93.75 107.695312 88.945312 112.5 83.035156 112.5 C 80.074219 112.5 77.679688 114.898438 77.679688 117.855469 C 77.679688 120.8125 80.074219 123.214844 83.035156 123.214844 C 88.945312 123.214844 93.75 128.019531 93.75 133.929688 L 93.75 155.355469 C 93.75 164.21875 100.960938 171.429688 109.820312 171.429688 C 112.785156 171.429688 115.179688 169.027344 115.179688 166.070312 C 115.179688 163.113281 112.785156 160.714844 109.820312 160.714844 C 106.863281 160.714844 104.464844 158.308594 104.464844 155.355469 L 104.464844 133.929688 C 104.464844 127.5 101.5625 121.789062 97.0625 117.855469 C 101.5625 113.925781 104.464844 108.214844 104.464844 101.785156 Z M 104.464844 101.785156 "/>
<path style=" stroke:none;fill-rule:nonzero;fill:rgb(93.333333%,68.627451%,29.411765%);fill-opacity:1;" d="M 155.355469 99.105469 C 155.355469 103.546875 151.757812 107.144531 147.320312 107.144531 C 142.882812 107.144531 139.285156 103.546875 139.285156 99.105469 C 139.285156 94.667969 142.882812 91.070312 147.320312 91.070312 C 151.757812 91.070312 155.355469 94.667969 155.355469 99.105469 Z M 155.355469 99.105469 "/>
<path style=" stroke:none;fill-rule:nonzero;fill:rgb(93.333333%,68.627451%,29.411765%);fill-opacity:1;" d="M 211.605469 112.5 C 205.699219 112.5 200.894531 107.695312 200.894531 101.785156 L 200.894531 80.355469 C 200.894531 71.496094 193.683594 64.285156 184.820312 64.285156 C 181.859375 64.285156 179.464844 66.6875 179.464844 69.644531 C 179.464844 72.601562 181.859375 75 184.820312 75 C 187.777344 75 190.179688 77.40625 190.179688 80.355469 L 190.179688 101.785156 C 190.179688 108.214844 193.082031 113.925781 197.582031 117.855469 C 193.082031 121.789062 190.179688 127.5 190.179688 133.929688 L 190.179688 155.355469 C 190.179688 158.308594 187.777344 160.714844 184.820312 160.714844 C 181.859375 160.714844 179.464844 163.113281 179.464844 166.070312 C 179.464844 169.027344 181.859375 171.429688 184.820312 171.429688 C 193.683594 171.429688 200.894531 164.21875 200.894531 155.355469 L 200.894531 133.929688 C 200.894531 128.019531 205.699219 123.214844 211.605469 123.214844 C 214.570312 123.214844 216.964844 120.8125 216.964844 117.855469 C 216.964844 114.898438 214.570312 112.5 211.605469 112.5 Z M 211.605469 112.5 "/>
<path style=" stroke:none;fill-rule:nonzero;fill:rgb(93.333333%,68.627451%,29.411765%);fill-opacity:1;" d="M 147.320312 128.570312 C 144.359375 128.570312 141.964844 130.972656 141.964844 133.929688 L 141.964844 150 C 141.964844 152.957031 144.359375 155.355469 147.320312 155.355469 C 150.285156 155.355469 152.679688 152.957031 152.679688 150 L 152.679688 133.929688 C 152.679688 130.972656 150.285156 128.570312 147.320312 128.570312 Z M 147.320312 128.570312 "/>
</g>
</svg>
