<?xml version="1.0" encoding="UTF-8"?>
<svg xmlns="http://www.w3.org/2000/svg" xmlns:xlink="http://www.w3.org/1999/xlink" width="300pt" height="300pt" viewBox="0 0 300 300" version="1.1">
<g id="surface1">
<path style=" stroke:none;fill-rule:nonzero;fill:rgb(100%,85.490196%,26.666667%);fill-opacity:1;" d="M 298.097656 146.667969 L 298.097656 180.683594 C 298.097656 198.675781 283.511719 213.257812 265.519531 213.257812 L 163.894531 213.257812 C 158.3125 213.257812 153.828125 217.917969 154.089844 223.554688 C 154.351562 228.890625 158.96875 232.878906 164.171875 232.878906 L 188.207031 232.878906 C 193.632812 232.878906 198.023438 237.273438 198.023438 242.691406 L 198.023438 267.21875 C 198.023438 285.328125 183.339844 300 165.242188 300 L 136.730469 300 C 118.621094 300 103.941406 285.328125 103.941406 267.21875 L 103.941406 180.816406 L 34.921875 180.816406 C 16.929688 180.816406 2.34375 166.230469 2.34375 148.238281 L 2.34375 119.3125 C 2.34375 101.320312 16.929688 86.734375 34.921875 86.734375 L 103.941406 86.734375 L 103.941406 86.730469 L 133.691406 86.730469 C 139.257812 86.730469 143.746094 82.089844 143.492188 76.453125 C 143.242188 71.175781 138.699219 67.105469 133.410156 67.105469 L 113.757812 67.105469 C 108.339844 67.105469 103.941406 62.714844 103.941406 57.296875 L 103.941406 32.78125 C 103.941406 14.671875 118.621094 0 136.730469 0 L 165.242188 0 C 183.3125 0 197.96875 14.617188 198.023438 32.691406 L 198.023438 114.09375 L 265.519531 114.09375 C 283.511719 114.09375 298.097656 128.683594 298.097656 146.667969 Z M 298.097656 146.667969 "/>
<path style=" stroke:none;fill-rule:nonzero;fill:rgb(100%,80.392157%,0%);fill-opacity:1;" d="M 298.097656 146.667969 L 298.097656 180.683594 C 298.097656 198.675781 283.511719 213.257812 265.519531 213.257812 L 163.894531 213.257812 C 158.3125 213.257812 153.828125 217.917969 154.089844 223.554688 C 154.351562 228.890625 158.96875 232.878906 164.171875 232.878906 L 188.207031 232.878906 C 193.632812 232.878906 198.023438 237.273438 198.023438 242.691406 L 198.023438 267.21875 C 198.023438 285.328125 183.339844 300 165.242188 300 L 150.984375 300 L 150.984375 0 L 165.242188 0 C 183.3125 0 197.96875 14.617188 198.023438 32.691406 L 198.023438 114.09375 L 265.519531 114.09375 C 283.511719 114.09375 298.097656 128.683594 298.097656 146.667969 Z M 298.097656 146.667969 "/>
<path style=" stroke:none;fill-rule:nonzero;fill:rgb(28.235294%,58.431373%,100%);fill-opacity:1;" d="M 188.824219 256.152344 C 188.824219 261.570312 184.433594 265.960938 179.019531 265.960938 C 173.601562 265.960938 169.207031 261.570312 169.207031 256.152344 C 169.207031 250.734375 173.601562 246.34375 179.019531 246.34375 C 184.433594 246.34375 188.824219 250.734375 188.824219 256.152344 Z M 188.824219 256.152344 "/>
<path style=" stroke:none;fill-rule:nonzero;fill:rgb(14.901961%,50.980392%,100%);fill-opacity:1;" d="M 188.824219 256.152344 C 188.824219 261.570312 184.433594 265.960938 179.019531 265.960938 L 179.019531 246.34375 C 184.433594 246.34375 188.824219 250.734375 188.824219 256.152344 Z M 188.824219 256.152344 "/>
<path style=" stroke:none;fill-rule:nonzero;fill:rgb(28.235294%,58.431373%,100%);fill-opacity:1;" d="M 198.023438 32.691406 L 198.023438 127.542969 C 198.023438 138.382812 189.238281 147.167969 178.398438 147.167969 L 113.757812 147.167969 C 108.339844 147.167969 103.941406 151.566406 103.941406 156.976562 L 103.941406 180.816406 L 34.921875 180.816406 C 16.929688 180.816406 2.34375 166.226562 2.34375 148.238281 L 2.34375 119.3125 C 2.34375 101.324219 16.929688 86.734375 34.921875 86.734375 L 103.941406 86.734375 L 103.941406 86.730469 L 133.691406 86.730469 C 139.257812 86.730469 143.746094 82.089844 143.492188 76.453125 C 143.242188 71.175781 138.699219 67.105469 133.410156 67.105469 L 113.757812 67.105469 C 108.339844 67.105469 103.941406 62.714844 103.941406 57.296875 L 103.941406 32.78125 C 103.941406 14.671875 118.621094 0 136.730469 0 L 165.242188 0 C 183.3125 0 197.96875 14.617188 198.023438 32.691406 Z M 198.023438 32.691406 "/>
<path style=" stroke:none;fill-rule:nonzero;fill:rgb(14.901961%,50.980392%,100%);fill-opacity:1;" d="M 198.023438 32.691406 L 198.023438 127.542969 C 198.023438 138.382812 189.238281 147.167969 178.398438 147.167969 L 150.984375 147.167969 L 150.984375 0 L 165.242188 0 C 183.3125 0 197.96875 14.617188 198.023438 32.691406 Z M 198.023438 32.691406 "/>
<path style=" stroke:none;fill-rule:nonzero;fill:rgb(100%,85.490196%,26.666667%);fill-opacity:1;" d="M 135.019531 46.109375 C 135.019531 51.527344 130.628906 55.917969 125.210938 55.917969 C 119.785156 55.917969 115.394531 51.527344 115.394531 46.109375 C 115.394531 40.691406 119.785156 36.292969 125.210938 36.292969 C 130.628906 36.292969 135.019531 40.691406 135.019531 46.109375 Z M 135.019531 46.109375 "/>
<path style=" stroke:none;fill-rule:nonzero;fill:rgb(100%,80.392157%,0%);fill-opacity:1;" d="M 135.019531 46.109375 C 135.019531 51.527344 130.628906 55.917969 125.210938 55.917969 L 125.210938 36.292969 C 130.628906 36.292969 135.019531 40.691406 135.019531 46.109375 Z M 135.019531 46.109375 "/>
</g>
</svg>
