<?xml version="1.0" encoding="UTF-8"?>
<svg xmlns="http://www.w3.org/2000/svg" xmlns:xlink="http://www.w3.org/1999/xlink" width="300pt" height="300pt" viewBox="0 0 300 300" version="1.1">
<g id="surface1">
<path style=" stroke:none;fill-rule:nonzero;fill:rgb(17.254902%,69.411765%,20.392157%);fill-opacity:1;" d="M 274.398438 0.00390625 C 275.167969 -0.0429688 275.894531 0.328125 276.277344 0.964844 C 276.660156 1.601562 276.628906 2.390625 276.195312 2.996094 L 198.5 103.429688 C 197.933594 104.042969 197.113281 104.390625 196.257812 104.390625 C 195.398438 104.390625 194.582031 104.042969 194.011719 103.429688 L 166.617188 74.367188 C 165.945312 73.707031 165 73.371094 164.039062 73.457031 C 163.078125 73.539062 162.210938 74.03125 161.675781 74.796875 L 145.058594 94.882812 C 144.535156 96.015625 144.707031 97.328125 145.507812 98.304688 L 194.910156 147.023438 C 195.476562 147.636719 196.296875 147.988281 197.15625 147.988281 C 198.011719 147.988281 198.832031 147.636719 199.398438 147.023438 L 296.402344 43.171875 C 296.976562 42.585938 297.863281 42.386719 298.652344 42.667969 C 299.4375 42.949219 299.96875 43.652344 299.996094 44.453125 L 299.996094 297.039062 C 300.03125 297.617188 299.808594 298.179688 299.378906 298.589844 C 298.949219 298.996094 298.355469 299.210938 297.75 299.175781 L 2.25 299.175781 C 1.644531 299.210938 1.050781 298.996094 0.621094 298.589844 C 0.191406 298.179688 -0.0351562 297.617188 0.00390625 297.039062 L 0.00390625 2.140625 C -0.0351562 1.5625 0.191406 1 0.621094 0.589844 C 1.050781 0.179688 1.644531 -0.03125 2.25 0.00390625 Z M 198.054688 170.53125 C 184.683594 170.308594 171.796875 175.292969 162.382812 184.332031 C 152.972656 193.371094 147.847656 205.675781 148.203125 218.398438 C 148.203125 247.886719 170.65625 266.691406 199.847656 266.691406 C 213.363281 267.011719 226.613281 263.109375 237.574219 255.582031 C 238.589844 254.703125 238.78125 253.25 238.023438 252.160156 L 229.9375 240.621094 C 229.027344 239.628906 227.484375 239.445312 226.34375 240.195312 C 219.320312 244.761719 211.050781 247.285156 202.542969 247.460938 C 186.824219 247.460938 176.945312 238.058594 175.148438 226.945312 C 175.183594 226.488281 175.566406 226.125 176.046875 226.09375 L 243.859375 226.09375 C 245.304688 226 246.457031 224.902344 246.554688 223.527344 L 246.554688 220.960938 C 246.554688 191.046875 226.792969 170.53125 198.050781 170.53125 Z M 131.140625 154.289062 C 117.5 143.679688 100.238281 138.203125 82.636719 138.90625 C 52.097656 138.90625 33.238281 156 33.238281 176.515625 C 33.238281 223.101562 107.785156 208.140625 107.785156 229.9375 C 107.785156 236.777344 100.601562 243.613281 85.332031 243.613281 C 70.828125 243.726562 56.839844 238.523438 46.261719 229.082031 C 45.628906 228.519531 44.773438 228.246094 43.914062 228.328125 C 43.054688 228.410156 42.269531 228.839844 41.769531 229.511719 L 30.09375 244.894531 C 29.335938 245.984375 29.527344 247.4375 30.542969 248.316406 C 42.667969 259 59.734375 266.265625 83.535156 266.265625 C 118.566406 266.265625 135.628906 249.167969 136.527344 226.945312 C 136.527344 180.789062 61.980469 194.039062 61.980469 174.378906 C 61.980469 167.113281 68.714844 161.984375 80.390625 161.984375 C 93.261719 161.816406 105.800781 165.894531 115.871094 173.523438 C 116.460938 173.984375 117.226562 174.199219 117.984375 174.117188 C 118.746094 174.039062 119.441406 173.667969 119.914062 173.09375 L 131.589844 158.136719 C 132.074219 157.574219 132.300781 156.847656 132.214844 156.125 C 132.128906 155.398438 131.742188 154.738281 131.140625 154.289062 Z M 198.5 189.335938 C 210.714844 188.683594 221.261719 197.394531 222.304688 208.996094 C 222.269531 209.453125 221.886719 209.820312 221.40625 209.851562 L 175.597656 209.851562 C 175.117188 209.820312 174.734375 209.453125 174.699219 208.996094 C 176.203125 197.625 186.460938 189.152344 198.5 189.335938 Z M 198.5 189.335938 "/>
</g>
</svg>
